<?xml version="1.0" encoding="utf-8"?>
<!-- Generator: Adobe Illustrator 19.0.0, SVG Export Plug-In . SVG Version: 6.00 Build 0)  -->
<svg version="1.1" id="Warstwa_1" xmlns="http://www.w3.org/2000/svg" xmlns:xlink="http://www.w3.org/1999/xlink" x="0px" y="0px"
	 viewBox="0 0 578.1 538.5" style="enable-background:new 0 0 578.1 538.5;" xml:space="preserve">
<style type="text/css">
	.st0{fill:#5E9B46;}
</style>
<path id="XMLID_2_" class="st0" d="M572.6,506.8L462.3,317.2c35.4-10.1,63.5-28.8,84.5-56.2c20.9-27.3,31.4-59.9,31.4-97.6
	c0-31.7-7.4-60-22.1-84.8c-14.7-24.8-35.2-44.1-61.4-57.9c-25-13.1-53.1-19.9-84.3-20.6c-0.5,0-1-0.1-1.5-0.1h-3.2H274H18.6
	c-5.5,0-10,1.7-13.4,5.2C1.7,8.6,0,13.1,0,18.6c0,5.5,1.7,10,5.2,13.4c3.4,3.4,7.9,5.2,13.4,5.2h174.5v480.6c0,6,1.9,10.9,5.9,14.8
	c3.9,3.9,8.8,5.9,14.8,5.9c6,0,10.9-2,14.8-5.9c3.9-3.9,5.9-8.8,5.9-14.8V37.2h174.5c0.6,0,1.1-0.1,1.6-0.1l1.1,0.1
	c25.3,0,42,9.3,61.7,19.7c19.8,10.3,35.3,24.8,46.5,43.4c11.3,18.6,16.9,39.6,16.9,63.1c0,23-5.6,43.7-16.9,62.1
	c-11.3,18.4-26.8,32.6-46.5,42.8c-19.8,10.1-42.3,15.2-67.6,15.2h-22.2h-27.9l-91.5,0.1c-20.5,2.1-20.5,20.7-20.5,20.7
	s0,18.1,19.3,20.6l77.5,0h65.2h12.4l118.6,202.7c2.3,3.7,4.8,6.4,7.6,8.3c2.8,1.8,6.4,2.8,11,2.8c7.3,0,13-1.4,16.9-4.1
	c3.9-2.8,5.9-6.7,5.9-11.7C578.1,518.5,576.3,513.3,572.6,506.8z"/>
</svg>
